<mxfile host="app.diagrams.net" modified="2023-10-11T04:57:01.858Z" agent="Mozilla/5.0 (Windows NT 10.0; Win64; x64; rv:109.0) Gecko/20100101 Firefox/118.0" etag="aN36cIsmhvdpWWRadyn5" version="22.0.4" type="github">
  <diagram id="C5RBs43oDa-KdzZeNtuy" name="Page-1">
    <mxGraphModel dx="1434" dy="774" grid="1" gridSize="10" guides="1" tooltips="1" connect="1" arrows="1" fold="1" page="1" pageScale="1" pageWidth="827" pageHeight="1169" math="0" shadow="0">
      <root>
        <mxCell id="WIyWlLk6GJQsqaUBKTNV-0" />
        <mxCell id="WIyWlLk6GJQsqaUBKTNV-1" parent="WIyWlLk6GJQsqaUBKTNV-0" />
        <mxCell id="zn8KJiAW3JZOq7t5Bm99-3" value="" style="edgeStyle=orthogonalEdgeStyle;rounded=0;orthogonalLoop=1;jettySize=auto;html=1;" edge="1" parent="WIyWlLk6GJQsqaUBKTNV-1" target="zn8KJiAW3JZOq7t5Bm99-2">
          <mxGeometry relative="1" as="geometry">
            <mxPoint x="504" y="140" as="sourcePoint" />
          </mxGeometry>
        </mxCell>
        <mxCell id="zn8KJiAW3JZOq7t5Bm99-5" value="" style="edgeStyle=orthogonalEdgeStyle;rounded=0;orthogonalLoop=1;jettySize=auto;html=1;" edge="1" parent="WIyWlLk6GJQsqaUBKTNV-1" source="zn8KJiAW3JZOq7t5Bm99-2" target="zn8KJiAW3JZOq7t5Bm99-4">
          <mxGeometry relative="1" as="geometry" />
        </mxCell>
        <mxCell id="zn8KJiAW3JZOq7t5Bm99-2" value="Auditor registra información" style="rounded=0;whiteSpace=wrap;html=1;" vertex="1" parent="WIyWlLk6GJQsqaUBKTNV-1">
          <mxGeometry x="444" y="180" width="120" height="60" as="geometry" />
        </mxCell>
        <mxCell id="zn8KJiAW3JZOq7t5Bm99-7" value="" style="edgeStyle=orthogonalEdgeStyle;rounded=0;orthogonalLoop=1;jettySize=auto;html=1;" edge="1" parent="WIyWlLk6GJQsqaUBKTNV-1" source="zn8KJiAW3JZOq7t5Bm99-4" target="zn8KJiAW3JZOq7t5Bm99-6">
          <mxGeometry relative="1" as="geometry" />
        </mxCell>
        <mxCell id="zn8KJiAW3JZOq7t5Bm99-22" value="" style="edgeStyle=orthogonalEdgeStyle;rounded=0;orthogonalLoop=1;jettySize=auto;html=1;" edge="1" parent="WIyWlLk6GJQsqaUBKTNV-1" source="zn8KJiAW3JZOq7t5Bm99-4" target="zn8KJiAW3JZOq7t5Bm99-21">
          <mxGeometry relative="1" as="geometry" />
        </mxCell>
        <mxCell id="zn8KJiAW3JZOq7t5Bm99-4" value="Jefe autoriza" style="rhombus;whiteSpace=wrap;html=1;rounded=0;" vertex="1" parent="WIyWlLk6GJQsqaUBKTNV-1">
          <mxGeometry x="464" y="310" width="80" height="80" as="geometry" />
        </mxCell>
        <mxCell id="zn8KJiAW3JZOq7t5Bm99-6" value="Envía notificación al BUCO (responsible)" style="whiteSpace=wrap;html=1;rounded=0;" vertex="1" parent="WIyWlLk6GJQsqaUBKTNV-1">
          <mxGeometry x="270" y="320" width="120" height="60" as="geometry" />
        </mxCell>
        <mxCell id="zn8KJiAW3JZOq7t5Bm99-8" value="Sí" style="text;html=1;align=center;verticalAlign=middle;resizable=0;points=[];autosize=1;strokeColor=none;fillColor=none;" vertex="1" parent="WIyWlLk6GJQsqaUBKTNV-1">
          <mxGeometry x="405" y="318" width="30" height="30" as="geometry" />
        </mxCell>
        <mxCell id="zn8KJiAW3JZOq7t5Bm99-12" value="" style="endArrow=none;dashed=1;html=1;dashPattern=1 3;strokeWidth=2;rounded=0;" edge="1" parent="WIyWlLk6GJQsqaUBKTNV-1">
          <mxGeometry width="50" height="50" relative="1" as="geometry">
            <mxPoint x="70" y="280" as="sourcePoint" />
            <mxPoint x="760" y="280" as="targetPoint" />
          </mxGeometry>
        </mxCell>
        <mxCell id="zn8KJiAW3JZOq7t5Bm99-13" value="Auditor" style="text;html=1;align=center;verticalAlign=middle;resizable=0;points=[];autosize=1;strokeColor=none;fillColor=none;rotation=-90;" vertex="1" parent="WIyWlLk6GJQsqaUBKTNV-1">
          <mxGeometry x="60" y="138" width="60" height="30" as="geometry" />
        </mxCell>
        <mxCell id="zn8KJiAW3JZOq7t5Bm99-14" value="Jefe" style="text;html=1;align=center;verticalAlign=middle;resizable=0;points=[];autosize=1;strokeColor=none;fillColor=none;rotation=-90;" vertex="1" parent="WIyWlLk6GJQsqaUBKTNV-1">
          <mxGeometry x="60" y="330" width="50" height="30" as="geometry" />
        </mxCell>
        <mxCell id="zn8KJiAW3JZOq7t5Bm99-18" value="" style="endArrow=none;dashed=1;html=1;dashPattern=1 3;strokeWidth=2;rounded=0;" edge="1" parent="WIyWlLk6GJQsqaUBKTNV-1">
          <mxGeometry width="50" height="50" relative="1" as="geometry">
            <mxPoint x="75" y="430" as="sourcePoint" />
            <mxPoint x="765" y="430" as="targetPoint" />
          </mxGeometry>
        </mxCell>
        <mxCell id="zn8KJiAW3JZOq7t5Bm99-23" style="edgeStyle=orthogonalEdgeStyle;rounded=0;orthogonalLoop=1;jettySize=auto;html=1;entryX=1;entryY=0.5;entryDx=0;entryDy=0;" edge="1" parent="WIyWlLk6GJQsqaUBKTNV-1" source="zn8KJiAW3JZOq7t5Bm99-21" target="zn8KJiAW3JZOq7t5Bm99-2">
          <mxGeometry relative="1" as="geometry">
            <Array as="points">
              <mxPoint x="770" y="350" />
              <mxPoint x="770" y="210" />
            </Array>
          </mxGeometry>
        </mxCell>
        <mxCell id="zn8KJiAW3JZOq7t5Bm99-21" value="Notifica al auditor y solicita ajustes" style="whiteSpace=wrap;html=1;rounded=0;" vertex="1" parent="WIyWlLk6GJQsqaUBKTNV-1">
          <mxGeometry x="604" y="320" width="120" height="60" as="geometry" />
        </mxCell>
        <mxCell id="zn8KJiAW3JZOq7t5Bm99-24" value="No" style="text;html=1;align=center;verticalAlign=middle;resizable=0;points=[];autosize=1;strokeColor=none;fillColor=none;" vertex="1" parent="WIyWlLk6GJQsqaUBKTNV-1">
          <mxGeometry x="540" y="318" width="40" height="30" as="geometry" />
        </mxCell>
        <mxCell id="zn8KJiAW3JZOq7t5Bm99-27" value="&lt;div&gt;FIN&lt;/div&gt;" style="html=1;dashed=0;whiteSpace=wrap;shape=mxgraph.dfd.start" vertex="1" parent="WIyWlLk6GJQsqaUBKTNV-1">
          <mxGeometry x="140" y="335" width="80" height="30" as="geometry" />
        </mxCell>
        <mxCell id="zn8KJiAW3JZOq7t5Bm99-28" style="edgeStyle=orthogonalEdgeStyle;rounded=0;orthogonalLoop=1;jettySize=auto;html=1;entryX=1;entryY=0.5;entryDx=0;entryDy=0;entryPerimeter=0;" edge="1" parent="WIyWlLk6GJQsqaUBKTNV-1" source="zn8KJiAW3JZOq7t5Bm99-6" target="zn8KJiAW3JZOq7t5Bm99-27">
          <mxGeometry relative="1" as="geometry">
            <mxPoint x="220" y="335" as="targetPoint" />
          </mxGeometry>
        </mxCell>
        <mxCell id="zn8KJiAW3JZOq7t5Bm99-29" value="INICIO" style="html=1;dashed=0;whiteSpace=wrap;shape=mxgraph.dfd.start" vertex="1" parent="WIyWlLk6GJQsqaUBKTNV-1">
          <mxGeometry x="464" y="108" width="80" height="30" as="geometry" />
        </mxCell>
      </root>
    </mxGraphModel>
  </diagram>
</mxfile>
